Coordinates
version=1
nRows=32
nColumns=22
inDegrees=yes

Units are S.I. units (second, meters, Newtons, ...)
If the header above contains a line with 'inDegrees', this indicates whether rotational values are in degrees (yes) or radians (no).

endheader
time	pelvis_tilt	pelvis_list	pelvis_rotation	pelvis_tx	pelvis_ty	pelvis_tz	hip_flexion_r	hip_adduction_r	hip_rotation_r	knee_angle_r	ankle_angle_r	subtalar_angle_r	hip_flexion_l	hip_adduction_l	hip_rotation_l	knee_angle_l	ankle_angle_l	subtalar_angle_l	lumbar_extension	lumbar_bending	lumbar_rotation
      0.01000000	      3.52246087	     -2.42909526	     -7.21260537	     -1.31584350	      0.94367255	      0.00972478	     -2.42926512	      2.05351072	      2.15549548	     -8.17696738	      3.73705657	      3.12666811	     -2.71455137	     -2.77983536	    -12.26054896	    -10.90914321	      7.35957760	      2.84312902	     -5.57124105	     -0.36265220	      2.84619952
      0.02000000	      3.52369809	     -2.44265644	     -7.17955271	     -1.31627435	      0.94367455	      0.00991397	     -2.36861109	      2.08780189	      2.07954370	     -8.25314851	      3.76513014	      3.14134227	     -2.64467597	     -2.82537414	    -12.27369657	    -10.98281415	      7.35094258	      2.79868065	     -5.58649256	     -0.33288328	      2.84016771
      0.03000000	      3.49599461	     -2.44511362	     -7.14332068	     -1.31676125	      0.94362402	      0.01008596	     -2.26141385	      2.11404902	      2.00238603	     -8.34961507	      3.80408522	      3.16206602	     -2.52348175	     -2.86240724	    -12.25331274	    -11.08662957	      7.37880163	      2.72925268	     -5.57320259	     -0.31054662	      2.83349782
      0.04000000	      3.45666512	     -2.43952130	     -7.11029510	     -1.31725944	      0.94355152	      0.01026326	     -2.14543139	      2.13387415	      1.95088729	     -8.43612689	      3.83627059	      3.18127615	     -2.38729680	     -2.89043395	    -12.21992458	    -11.19354251	      7.41342977	      2.65407824	     -5.54603785	     -0.29958546	      2.83775477
      0.05000000	      3.43923412	     -2.43311096	     -7.08227751	     -1.31775041	      0.94350891	      0.01042961	     -2.05974333	      2.14839040	      1.91705523	     -8.50903920	      3.86139356	      3.19433578	     -2.28041393	     -2.91075202	    -12.18568894	    -11.29100844	      7.44132234	      2.59499454	     -5.54450621	     -0.28988993	      2.85726499
      0.06000000	      3.45895316	     -2.42255745	     -7.06203385	     -1.31819904	      0.94352471	      0.01060370	     -2.03824859	      2.15259478	      1.92325733	     -8.53780829	      3.86281143	      3.19668038	     -2.23519121	     -2.91566105	    -12.14173131	    -11.35208109	      7.43917688	      2.58245594	     -5.58214928	     -0.29378188	      2.90443914
      0.07000000	      3.42515896	     -2.41661513	     -7.01634902	     -1.31868517	      0.94344400	      0.01071166	     -1.92724268	      2.16725656	      1.85563404	     -8.62895680	      3.91105668	      3.21623184	     -2.09459405	     -2.93888773	    -12.11292782	    -11.47767106	      7.50257299	      2.47753248	     -5.56676217	     -0.27698166	      2.90093107
      0.08000000	      3.44033029	     -2.40273562	     -6.99345515	     -1.31909747	      0.94345474	      0.01085789	     -1.90810538	      2.16654491	      1.87035880	     -8.64828626	      3.90690593	      3.21794563	     -2.05053937	     -2.93697975	    -12.06883865	    -11.52827809	      7.49540156	      2.46060607	     -5.59950366	     -0.28259408	      2.94828323
      0.09000000	      3.40345601	     -2.38336008	     -6.94884197	     -1.31952080	      0.94338174	      0.01093438	     -1.80607318	      2.16361000	      1.81981289	     -8.71979436	      3.93828603	      3.23580720	     -1.92356579	     -2.93847477	    -12.04049783	    -11.62156598	      7.52846743	      2.31480655	     -5.57343243	     -0.27776763	      2.94264693
      0.10000000	      3.41630981	     -2.37235967	     -6.92603768	     -1.31987544	      0.94339707	      0.01106313	     -1.79170800	      2.16396644	      1.82541308	     -8.73193309	      3.93693166	      3.23715303	     -1.89152062	     -2.93654148	    -12.01371237	    -11.65000105	      7.52215281	      2.29683816	     -5.59846625	     -0.27789296	      2.98200736
      0.11000000	      3.40139658	     -2.35856216	     -6.88687098	     -1.32021396	      0.94337091	      0.01114650	     -1.72474439	      2.16268166	      1.76356238	     -8.79240924	      3.95939599	      3.24915987	     -1.81703991	     -2.93651988	    -12.00730805	    -11.69897966	      7.53124488	      2.16039305	     -5.58714464	     -0.27000912	      2.98480158
      0.12000000	      3.41153432	     -2.35028460	     -6.86384243	     -1.32051225	      0.94339092	      0.01125939	     -1.71133536	      2.16395843	      1.75641943	     -8.80382165	      3.96062346	      3.25081009	     -1.79195982	     -2.93550134	    -11.99387159	    -11.71677190	      7.52845131	      2.13690009	     -5.60038079	     -0.26000548	      3.01584030
      0.13000000	      3.42139405	     -2.35250607	     -6.83717188	     -1.32079513	      0.94341190	      0.01137898	     -1.68433067	      2.17732919	      1.70508934	     -8.84609040	      3.96642357	      3.25487685	     -1.76466338	     -2.94855753	    -11.99769277	    -11.74300808	      7.52579530	      2.08756254	     -5.61039395	     -0.23929561	      3.04377924
      0.14000000	      3.42638962	     -2.35973484	     -6.80776196	     -1.32106456	      0.94342442	      0.01150269	     -1.65255265	      2.19701882	      1.64231474	     -8.89014122	      3.97823264	      3.26046437	     -1.73089261	     -2.96924613	    -12.00435800	    -11.77461055	      7.53612190	      2.02388252	     -5.61292365	     -0.21244133	      3.05923051
      0.15000000	      3.43691955	     -2.35323942	     -6.78476024	     -1.32129552	      0.94344783	      0.01165406	     -1.64724954	      2.20250227	      1.64099438	     -8.89583505	      3.97867416	      3.26085097	     -1.72197805	     -2.97235531	    -12.00801821	    -11.77099134	      7.53752540	      2.01928634	     -5.61396687	     -0.20756882	      3.06749929
      0.16000000	      3.43822797	     -2.38649332	     -6.74504343	     -1.32158395	      0.94344156	      0.01179399	     -1.59382141	      2.25355981	      1.52287735	     -8.97795712	      3.99581151	      3.26833637	     -1.66717089	     -3.03045156	    -12.01444069	    -11.84213982	      7.57370892	      1.92463315	     -5.61960726	     -0.15754198	      3.07299126
      0.17000000	      3.45300212	     -2.38761303	     -6.71993390	     -1.32185576	      0.94346011	      0.01195124	     -1.58020892	      2.26852712	      1.50601322	     -9.00413278	      3.99737939	      3.26873276	     -1.64260226	     -3.04649381	    -11.99000597	    -11.87923325	      7.57313791	      1.90590683	     -5.63467177	     -0.15182752	      3.10820430
      0.18000000	      3.46943962	     -2.40302514	     -6.68672616	     -1.32212600	      0.94347432	      0.01209069	     -1.55480772	      2.29815502	      1.45443533	     -9.06141685	      4.00608898	      3.26710286	     -1.61963526	     -3.08019447	    -11.97621583	    -11.91907942	      7.58016897	      1.87828032	     -5.65423066	     -0.12768801	      3.12523353
      0.19000000	      3.48421234	     -2.41227070	     -6.64372409	     -1.32237198	      0.94348193	      0.01221623	     -1.53483664	      2.32186265	      1.40158204	     -9.10738712	      4.02325834	      3.26019484	     -1.59526908	     -3.10804526	    -11.95596175	    -11.95749905	      7.59792759	      1.85318267	     -5.66833930	     -0.11070043	      3.12830562
      0.20000000	      3.49611236	     -2.40522894	     -6.61458605	     -1.32255566	      0.94349285	      0.01235112	     -1.53195661	      2.32683513	      1.40306126	     -9.11637696	      4.02479839	      3.25894891	     -1.59181024	     -3.11448193	    -11.95731328	    -11.95464777	      7.59972552	      1.85147320	     -5.66509397	     -0.11132061	      3.13396437
      0.21000000	      3.52181974	     -2.41476468	     -6.54584349	     -1.32279209	      0.94350040	      0.01241905	     -1.51459910	      2.34796338	      1.30787573	     -9.18554160	      4.08759007	      3.22133574	     -1.57549611	     -3.14122978	    -11.89505281	    -11.99584576	      7.62843369	      1.82587941	     -5.69512981	     -0.09077019	      3.10159416
      0.22000000	      3.54382126	     -2.40476478	     -6.50676839	     -1.32298654	      0.94351625	      0.01253217	     -1.51184314	      2.34890879	      1.31057762	     -9.21849571	      4.10332948	      3.20243316	     -1.57039956	     -3.14422849	    -11.86007021	    -12.01559813	      7.62893653	      1.82132089	     -5.70982129	     -0.09572132	      3.09496386
      0.23000000	      3.57257864	     -2.39406687	     -6.44208513	     -1.32314824	      0.94353274	      0.01259881	     -1.51953592	      2.34681827	      1.25239462	     -9.25160923	      4.18071141	      3.14037603	     -1.57906951	     -3.14337450	    -11.79985052	    -12.01716436	      7.63948009	      1.81398920	     -5.73120464	     -0.09763843	      3.05098593
      0.24000000	      3.59638801	     -2.38488779	     -6.40872893	     -1.32332261	      0.94355190	      0.01272585	     -1.51804023	      2.34896469	      1.26777883	     -9.28900339	      4.19618597	      3.12227455	     -1.58273328	     -3.14661356	    -11.77492253	    -12.02792140	      7.63752478	      1.81331734	     -5.74803795	     -0.10194943	      3.02914799
      0.25000000	      3.63118383	     -2.37238622	     -6.34960182	     -1.32346145	      0.94357714	      0.01281211	     -1.53742566	      2.34533006	      1.22820456	     -9.31549386	      4.28344945	      3.06518304	     -1.60130142	     -3.14263925	    -11.71382502	    -12.02761531	      7.64324658	      1.81293767	     -5.77543558	     -0.10761914	      2.98053231
      0.26000000	      3.65475623	     -2.36425050	     -6.31858407	     -1.32361971	      0.94359812	      0.01294912	     -1.53568506	      2.34911740	      1.24842854	     -9.35513594	      4.29925331	      3.05189528	     -1.60849288	     -3.14601327	    -11.69327042	    -12.03437684	      7.64108835	      1.81242066	     -5.79296616	     -0.11113399	      2.95384590
      0.27000000	      3.68319679	     -2.35689229	     -6.28254742	     -1.32376900	      0.94362245	      0.01308577	     -1.54096732	      2.35325592	      1.25999803	     -9.39521785	      4.35070040	      3.03531715	     -1.62029827	     -3.14955337	    -11.66022061	    -12.04123532	      7.64117968	      1.81101486	     -5.81816444	     -0.11381722	      2.92173756
      0.28000000	      3.72297022	     -2.34108167	     -6.23775557	     -1.32386478	      0.94365794	      0.01320603	     -1.56554767	      2.34508501	      1.22633283	     -9.42729980	      4.44693875	      2.99494235	     -1.65475702	     -3.13938441	    -11.61763541	    -12.02886196	      7.64502382	      1.80476132	     -5.84892069	     -0.12659890	      2.89505044
      0.29000000	      3.74862707	     -2.33139047	     -6.21369978	     -1.32397815	      0.94368385	      0.01336079	     -1.56701982	      2.34542086	      1.24777760	     -9.47116741	      4.46878482	      2.98243223	     -1.66904818	     -3.13991982	    -11.60054728	    -12.03302097	      7.64100536	      1.80082629	     -5.86802954	     -0.13107316	      2.88172324
      0.30000000	      3.79193108	     -2.31084156	     -6.18561666	     -1.32404057	      0.94372425	      0.01350030	     -1.59101568	      2.33012075	      1.24020265	     -9.51428342	      4.56648613	      2.94703306	     -1.71496840	     -3.12264488	    -11.57878620	    -12.01420778	      7.63972763	      1.78587740	     -5.90175299	     -0.14932535	      2.88252288
      0.31000000	      3.83296350	     -2.28776984	     -6.16199755	     -1.32410294	      0.94376656	      0.01364846	     -1.61124513	      2.31281948	      1.24944687	     -9.55925600	      4.62561805	      2.91588397	     -1.75658657	     -3.10358644	    -11.56263760	    -11.99932314	      7.63129500	      1.76664456	     -5.93640127	     -0.17130883	      2.88854598
      0.32000000	      3.85740580	     -2.27313126	     -6.13751895	     -1.32416164	      0.94378690	      0.01379739	     -1.61519211	      2.30727624	      1.27275802	     -9.60194202	      4.64583553	      2.90938716	     -1.77189336	     -3.09823271	    -11.54937750	    -12.00494820	      7.62944606	      1.75956216	     -5.95385773	     -0.18050234	      2.89053395
